<svg style="display:block" viewBox="0 0 1705.341 850.208" width="1279.006" height="637.812" preserveAspectRatio="none" xmlns="http://www.w3.org/2000/svg">
    <path d="M778.42.014c9.246-.183 12.769 1.425 20.417 6.717 40.878 28.286 81.816 56.364 123.146 84.007l67.97 45.08c15.71 10.42 32.64 21.204 47.36 32.844a134.586 134.586 0 0 1 30.26 33.086c14.03 21.89 16 44.317 21.87 68.782 7.89 32.954 24.16 72.213 46.04 98.537 9.28 11.163 22.18 16.938 36.54 17.458 49.71 1.797 84.21-30.124 106.37-71.225 15.62-28.968 23.15-55.993 48.63-78.53a93.936 93.936 0 0 1 70-23.56c26.59 1.994 41.81 13.477 58.51 32.68l100.83 9.513c24.59 2.216 49.51 4.209 74.02 7.119 2.63.41 11.3 1.446 12.99 3.553 11.96 14.834-23.29 14.368-30.35 15.68-2.83.526-7.33.733-10.14 1.012l-74.99 7.11c-50.02 4.742-75.83 5.855-119.88 32.348-49.67 29.872-66.23 73.822-94.03 120.79a425.793 425.793 0 0 1-62.94 82.65c-63.17 63.934-136.45 96.284-226.52 96.96-10.03 6.22-19.13 12.437-28.83 19.107-43.47 27.49-312.492 214.545-339.28 208.325-2.279-.53-3.046-1.31-4.305-3.17.244-11.12 35.517-34.72 43.494-43.67 15.309-17.16 26.801-26.24 48.642-33.98 11.176-3.96 25.639-14.06 36.643-19.404 74.946-47.456 147.876-98.907 218.356-152.644 2.05-1.565 2.21-3.44 2.03-5.683-3.61-3.305-38.4-2.618-45.91-3.544-149.163-18.384-45.83-64.277 7.05-105.444-2.5-1.96-4.97-3.946-7.42-5.957-62.96-51.742-103.698-132.98-111.624-213.574-24.652-11.27-50.027-26.623-68.771-46.512-6.112-4.472-23.215-32.476-12.165-38.472 11.91-6.463 49.438 5.166 63.014 6.845-30.817-13.494-67.075-26.28-81.053-60.072-3.953-6.813-11.971-47.234 1.324-48.307 19.01-1.534 55.731 23.437 72.442 31.678-30.01-27.075-52.127-50.76-47.168-94.264.793-6.964 2.273-9.58 7.428-13.87zm263.343 469.728-.7.962c-15.98 21.658-103.68 59.19-117.07 77.814 5.39 16.786 101.45 12.518 117.95 9.949A399.375 399.375 0 0 0 1283.223 435c8.42-12.22 18.63-25.075 26.38-37.285 6.59-10.368 13.12-22.338 19.6-32.77 20.78-33.407 44.35-51.465 78.41-70.182 11.46-7.037 26.46-13.31 23.9-29.705-1.11-7.103-7.8-14.358-13.6-17.552-36.67-20.214-76.26 1.918-95.59 35.162-9.68 16.642-15.2 30.126-23.67 47.1-19.84 37.067-53.73 70.332-95.81 79.662-22.57 5.004-49.98 5.43-70.57-6.234-34.54-23.638-65.64-95.377-73.89-134.836-8.75-41.823-17.58-62.531-54.3-87.662-3.67-2.514-11.47-6.797-15.45-8.77-27.86 58.677-23.26 140.357-1.89 200.438a289.706 289.706 0 0 0 34.81 68.219c5.33 7.869 15.91 21.436 20.21 29.156z"/>
    <path d="M1390.073 257.478c6.84-2.582 14.48.895 17.03 7.752 2.55 6.857-.96 14.48-7.83 16.998-6.82 2.502-14.39-.982-16.92-7.794-2.53-6.812.92-14.391 7.72-16.956z"/>
    <path fill="#ed2c2c" d="M1041.943 558.467A399.375 399.375 0 0 0 1283.223 435c-3.68 11.714-11.13 21.403-17.45 31.507-46.92 75.106-127.24 122.108-215.08 129.784-5.29.462-10.49.92-15.86.86 2.98-13.32 4.95-25.25 7.11-38.685z"/>
    <path fill="#041e3a" d="M1488.613 313.247c20.02-1.46 83.79 11.533 107 15.3 20.99 3.28 41.94 6.73 62.87 10.352 10.56 1.812 21.8 3.342 32.1 6.154 12.88 3.796 16.27 12.108 14.19 24.809-3.68 22.374-8.07 44.495-12.26 66.712l-22.04 117.605-9.91 53.792c-1.94 10.616-3.86 23.02-7.29 33.25-1.68 4.987-6.59 7.71-11.13 9.673-14.39 2.664-43-4.43-58.11-7.244l-77.76-14.544c-19.58-3.663-39.17-7.305-58.74-11.142-8.48-1.663-16.5-3.526-20.36-12.497-2.08-4.814-1.76-10.266-1.17-15.352 2.87-19.135 6.66-38.4 10.18-57.424l18.81-102.21 11.98-66.294c1.82-10.183 3.52-20.367 5.66-30.494 2.56-12.108 4.38-15.904 15.98-20.446z"/>
    <path fill="#fefefe" d="M1559.183 400.183c38.57-3.071 67.45 15.45 77.08 53.933a80.845 80.845 0 0 1-9.89 62.207c-12.32 20.105-28.86 31.669-51.51 37.03-99.85 13.31-109.31-134.243-15.68-153.17z"/>
    <path fill="#041e3a" d="m1540.973 476.82 44.96 10.118a407.297 407.297 0 0 0-4.97 24.458l-44.98-9.057c1.51-8.885 2.81-16.773 4.99-25.52zM1549.993 443.56c11.24 1.99 30.62 7.37 42.34 10.13-.94 5.053-3.17 20.848-5.94 23.9-14.24-2.187-29.57-5.994-43.71-9.202 2.32-9.177 4.23-15.89 7.31-24.827zM1600.193 455.36c8.97 2.514 20.15 4.819 29.37 6.974.34 5.822 2.2 21.368-2.63 24.23-8.87-1.352-21.94-4.58-31.04-6.518a557.46 557.46 0 0 0 4.3-24.686zM1594.313 488.672a743.079 743.079 0 0 1 32.15 6.777c-3.2 8.13-4.89 12.252-9.28 19.842-4.22 5.482-21.4-.465-28.21-1.951zM1517.853 435.49c7.73 1.41 16.19 4.003 23.82 6.124-1.93 5.648-5.12 21.258-8.54 24.452l-2.64-.281c-8.37-1.61-17.11-3.728-25.45-5.627 3.74-10.081 7.25-15.73 12.81-24.667zM1503.673 468.636l29.08 6.29c-1.77 7.754-3.04 16.12-4.4 23.993-.19 1.104-.02.559-1.18 1.532-6.82-1.031-16.57-2.134-22.65-5.135-3.87-6.244-1.98-19.575-.85-26.68zM1537.003 511.23l41.41 8.504c-3.38 6.153-5.35 9.064-9.57 14.698l-11.45 9.059c-10.75-8.368-18.53-18.467-20.39-32.261zM1577.443 413.833l1.92.552c4.95 4.992 16.65 23.172 11.32 29.253-4.48.104-12.13-2.068-16.75-3.176l-20.62-5.468c6.89-9.824 13.96-15.288 24.13-21.161zM1506.113 505.33c6.83 1.14 14.82 2.945 21.7 4.323 2.56 13.687 6.73 22.704 16.05 32.865-18.03-2.657-31.37-21.645-37.75-37.188zM1567.233 408.462l.85-.078.44.81c-11.57 7.434-15.83 12.358-23.31 23.729l-14.25-3.421c-1.26-.386-2.72-.934-3.98-1.375l-.41-1.757c5.54-10.587 29.3-17.063 40.66-17.908zM1586.363 521.648c7.51 1.377 13.99 3.083 21.36 5.009-6.69 5.732-12.19 9.717-20.02 13.706-6.95 2.72-11.88 3.57-19.1 5.045 9.12-8.216 12.9-12.562 17.76-23.76zM1588.413 411.374c6.91 1.717 23.84 9.747 22.93 18.067l-4.3 3.034-6.43 5.879c-2.46-12.181-5.09-17.12-12.2-26.98zM1618.493 435.148c3.36 2.962 7.04 13.159 8.79 17.63l-11.83-2.808-14-2.766z"/>
    <path d="M.071 385.143c14.203-.145 28.407-.13 42.61.046l.102 83.669.599-.678c15.78-17.818 36.183-23.12 59.176-21.478 48.521 3.464 78.635 47.436 75.794 93.918-1.443 23.605-6.986 43.366-23.62 61.044-30.08 31.488-84.382 33.573-112.012-2.348l.047 23.25c-13.693.38-28.952.094-42.767.095zM91.959 584.64c46.006-6.02 52.432-64.411 19.748-90.745-9.154-7.375-20.508-7.99-31.862-7.36-56.476 9.642-45.915 102.558 11.464 98.24.217-.044.434-.09.65-.135zM697.474 381.79l46.448.055.184 134.272 57.371-65.563a1710.12 1710.12 0 0 1 55.526.017c-18.756 21.873-47.486 54.059-67.69 74.098 16.546 21.578 35.028 49.163 51.094 71.839 6.342 8.49 12.078 17.435 18.626 26.064-18.678.28-37.361.268-56.04-.036-16.398-26.197-41.015-59.725-58.9-85.746-.179 28.624-.171 57.248.023 85.87l-46.701.082zM202.769 450.483c13.716-.125 27.433-.126 41.149-.002l-.041 68.19c-.068 26.203-5.378 66.453 31.677 66.159 41.811-.33 36.026-41.525 35.915-69.343l.08-65.01a1289.35 1289.35 0 0 1 45.954.178c-.877 20.088-.249 45.13-.293 65.553l.199 106.527-45.573-.015.189-20.125c-16.29 23.03-43.466 28.253-69.625 20.24a57.447 57.447 0 0 1-34.607-28.967c-12.466-24.297-6.708-66.171-7.825-94.136-.265-6.627-.465-45.374.509-48.491zM444.202 446.444c27.445-.398 50.09 2.034 71.608 21.56-5.48 8.086-16.659 21.31-23.046 29.46-13.706-12.06-45.957-25.761-62.221-9.285-18.546 22.058 34.306 29.406 44.853 33.554 24.581 8.993 40.726 22.27 39.593 50.113-1.585 38.973-29.504 50.72-64.013 54.13l-1.075.023c-27.821.483-49.306-7.27-69.377-26.513 6.917-8.555 16.089-19.706 23.586-27.442 13.696 11.638 24.978 19.036 43.6 18.97 10.775-.036 26.535-5.921 24.23-18.923-3.805-15.3-32.803-19.7-47.881-23.828-48.556-13.3-57.193-66.677-14.451-92.807 9.454-5.78 22.281-7.973 34.594-9.012zM557.12 383.472c9.185.059 18.371.022 27.555-.11l-.031 239.263-17.181.089-27.646-.06c.805-26.316.155-56.492.162-83.165l-.012-155.657zM621.061 450.433c14.487-.082 28.974-.066 43.46.047l-.08 113.716c.004 17 .872 41.596-.225 57.734l-1.52.727-43.996.05-.049-113.257c-.023-15.532-.936-44.546.312-58.336zM633.47 381.312a28.389 28.389 0 0 1 33.427 36.486 28.39 28.39 0 0 1-21.45 19.009c-15.2 3.019-30.012-6.71-33.282-21.857-3.269-15.148 6.213-30.12 21.305-33.638z"/>
</svg>
